<?xml version="1.0" standalone="no"?>
<!DOCTYPE svg PUBLIC "-//W3C//DTD SVG 20010904//EN"
 "http://www.w3.org/TR/2001/REC-SVG-20010904/DTD/svg10.dtd">
<svg version="1.0" xmlns="http://www.w3.org/2000/svg"
 width="180.000000pt" height="180.000000pt" viewBox="0 0 180.000000 180.000000"
 preserveAspectRatio="xMidYMid meet">

<g transform="translate(0.000000,180.000000) scale(0.100000,-0.100000)"
fill="#000000" stroke="none">
<path d="M0 900 l0 -900 900 0 900 0 0 900 0 900 -900 0 -900 0 0 -900z m1590
-2 c41 -116 76 -217 78 -225 3 -9 -10 -13 -47 -13 -44 0 -51 3 -51 19 0 37
-27 51 -95 51 -66 0 -88 -11 -100 -50 -6 -19 -15 -20 -188 -20 l-182 0 19 215
20 215 44 0 45 0 -9 -112 c-5 -62 -9 -140 -9 -173 l0 -60 75 0 75 0 0 -38 c0
-20 2 -37 5 -37 3 0 28 44 55 97 28 54 78 153 113 220 34 68 66 123 70 123 4
0 41 -95 82 -212z m-1261 44 c-11 -137 -11 -153 5 -176 32 -50 127 -25 141 37
6 24 25 229 25 265 0 19 5 22 45 22 l45 0 0 -38 c0 -88 -23 -260 -40 -298 -27
-63 -79 -97 -154 -102 -51 -3 -67 0 -96 20 -61 41 -72 76 -66 208 3 63 9 136
12 162 7 47 7 47 48 50 22 2 42 3 44 2 1 0 -3 -69 -9 -152z m616 144 c32 -14
35 -18 35 -58 0 -24 -5 -50 -10 -58 -5 -8 -10 -10 -10 -5 0 20 -58 45 -102 45
-49 0 -100 -27 -119 -62 -39 -72 -28 -156 24 -189 42 -27 122 -22 162 9 16 12
29 21 30 20 1 -2 -1 -27 -3 -56 -4 -50 -6 -55 -38 -68 -18 -8 -59 -14 -91 -14
-124 0 -198 75 -198 200 1 107 52 191 140 231 48 22 133 24 180 5z"/>
<path d="M1467 871 c-15 -34 -27 -64 -27 -67 0 -8 79 -4 84 5 3 5 -2 35 -12
67 l-18 58 -27 -63z"/>
</g>
</svg>
